<mxfile modified="2023-04-17T09:07:34.065Z" host="app.diagrams.net" agent="Mozilla/5.0 (Windows NT 10.0; Win64; x64) AppleWebKit/537.36 (KHTML, like Gecko) Chrome/112.0.0.0 Safari/537.36 Edg/112.0.1722.34" etag="SDfzsgJ5_4Cai19nGOv3" version="21.1.8" type="github">
  <diagram id="C2fSY1v2SiZeoUbDoYyL" name="Page-1">
    <mxGraphModel dx="1281" dy="869" grid="1" gridSize="10" guides="1" tooltips="1" connect="1" arrows="1" fold="1" page="1" pageScale="1" pageWidth="1169" pageHeight="827" math="0" shadow="0">
      <root>
        <mxCell id="0" />
        <mxCell id="1" parent="0" />
        <mxCell id="3ne1QswCM8ZiEu4GHsYG-25" style="orthogonalLoop=1;jettySize=auto;html=1;curved=1;sourcePerimeterSpacing=5;targetPerimeterSpacing=5;" parent="1" edge="1">
          <mxGeometry relative="1" as="geometry">
            <Array as="points">
              <mxPoint x="1457.5" y="439" />
            </Array>
            <mxPoint x="1228.5" y="433.67441860465124" as="sourcePoint" />
            <mxPoint x="1546.5" y="372.6271186440681" as="targetPoint" />
          </mxGeometry>
        </mxCell>
        <mxCell id="3ne1QswCM8ZiEu4GHsYG-6" value="Land&#xa;Transport" style="shape=image;verticalLabelPosition=bottom;verticalAlign=top;aspect=fixed;image=data:image/svg+xml,PHN2ZyB4bWxucz0iaHR0cDovL3d3dy53My5vcmcvMjAwMC9zdmciIHhtbG5zOnhsaW5rPSJodHRwOi8vd3d3LnczLm9yZy8xOTk5L3hsaW5rIiB2ZXJzaW9uPSIxLjEiIGlkPSJMYXllcl8xIiB4PSIwcHgiIHk9IjBweCIgd2lkdGg9IjQ4cHgiIGhlaWdodD0iNDhweCIgdmlld0JveD0iMCAwIDQ4IDQ4IiBlbmFibGUtYmFja2dyb3VuZD0ibmV3IDAgMCA0OCA0OCIgeG1sOnNwYWNlPSJwcmVzZXJ2ZSI+JiN4YTs8ZyBpZD0iY29sb3JfMzNfIj4mI3hhOwk8Zz4mI3hhOwkJPHBhdGggZmlsbD0iI0YxNjM2MiIgZD0iTTQ1LDIzaC01bC00LTEyYzAtMC41NTMtMC40NDctMS0xLTFoLTFoLTVIN2MtMC41NTMsMC0xLDAuNDQ3LTEsMXYyNGMwLDAuNTUzLDAuNDQ3LDEsMSwxaDI3ICAgIGMwLjE4NiwwLDAuMzUxLTAuMDY0LDAuNS0wLjE1M0MzNC42NDksMzUuOTM2LDM0LjgxNCwzNiwzNSwzNmg4YzAuNTUzLDAsMy0yLjQ0NywzLTN2LTlDNDYsMjMuNDQ3LDQ1LjU1MywyMyw0NSwyM3oiLz4mI3hhOwk8L2c+JiN4YTs8L2c+JiN4YTs8ZyBpZD0ib3V0bGluZV8zM18iPiYjeGE7CTxnPiYjeGE7CQk8cGF0aCBmaWxsPSIjMzg0RDY4IiBkPSJNMjEuMjgxLDMxLjM2MmMtMC4zNzUsMC4zNzMtMC4zNzUsMC45NzgsMCwxLjM1MXMwLjk4MiwwLjM3MywxLjM1NywwbDQuMDczLTQuMDUzICAgIGMwLjM3NC0wLjM3MywwLjM3NC0wLjk3OCwwLTEuMzUxbC00LjA3My00LjA1M2MtMC4zNzUtMC4zNzMtMC45ODItMC4zNzMtMS4zNTcsMHMtMC4zNzUsMC45NzgsMCwxLjM1MUwyMy42ODYsMjdIMTYgICAgYy0xLjY1NiwwLTMtMS4zNDMtMy0zdi00YzAtMC41NTMtMC40NDctMS0xLTFzLTEsMC40NDctMSwxdjRjMCwyLjc2MiwyLjIzOCw1LDUsNWg3LjY1NUwyMS4yODEsMzEuMzYyeiBNNDEsMjYgICAgYzAuNTUzLDAsMS0wLjQ0NywxLTFzLTAuNDQ3LTEtMS0xaC0yYy0wLjU1MywwLTEsMC40NDctMSwxczAuNDQ3LDEsMSwxSDQxeiBNMTMsMzVjLTEuNjU2LDAtMywxLjM0My0zLDNzMS4zNDQsMywzLDNzMy0xLjM0MywzLTMgICAgUzE0LjY1NiwzNSwxMywzNXogTTEzLDM5Yy0wLjU1MywwLTEtMC40NDctMS0xczAuNDQ3LTEsMS0xczEsMC40NDcsMSwxUzEzLjU1MywzOSwxMywzOXogTTI4LDM1SDE4Yy0wLjU1MywwLTEsMC40NDctMSwxICAgIHMwLjQ0NywxLDEsMWgxMGMwLjU1MywwLDEtMC40NDcsMS0xUzI4LjU1MywzNSwyOCwzNXogTTQyLDIwaC0yYy0xLjEwNCwwLTItMC44OTYtMi0ybC0yLTdjMC0yLjIwOS0xLjc5MS00LTQtNEgzICAgIEMyLjQ0Nyw3LDIsNy40NDcsMiw4djI4YzAsMC41NTMsMC40NDcsMSwxLDFoNWMwLjU1MywwLDEtMC40NDcsMS0xcy0wLjQ0Ny0xLTEtMUg0VjloMjhjMS4xMDQsMCwyLDAuODk2LDIsMmwyLDcgICAgYzAsMi4yMDksMS43OTEsNCw0LDRoMmMxLjEwNCwwLDIsMC44OTYsMiwydjljMCwxLjEwNC0wLjg5NiwyLTIsMmgtNGMtMC41NTMsMC0xLDAuNDQ3LTEsMXMwLjQ0NywxLDEsMWg0YzIuMjA5LDAsNC0xLjc5MSw0LTR2LTkgICAgQzQ2LDIxLjc5MSw0NC4yMDksMjAsNDIsMjB6IE0zMiwyMmMxLjEwNCwwLDItMC44OTYsMi0ybC0yLTdjMC0xLjEwNC0wLjg5Ni0yLTItMmgtNGMtMS4xMDQsMC0yLDAuODk2LTIsMnY3YzAsMS4xMDQsMC44OTYsMiwyLDIgICAgSDMyeiBNMjYsMTNoNGwyLDdoLTZWMTN6IE0zMywzNWMtMS42NTYsMC0zLDEuMzQzLTMsM3MxLjM0NCwzLDMsM3MzLTEuMzQzLDMtM1MzNC42NTYsMzUsMzMsMzV6IE0zMywzOWMtMC41NTMsMC0xLTAuNDQ3LTEtMSAgICBzMC40NDctMSwxLTFzMSwwLjQ0NywxLDFTMzMuNTUzLDM5LDMzLDM5eiIvPiYjeGE7CTwvZz4mI3hhOzwvZz4mI3hhOzwvc3ZnPg==" parent="1" vertex="1">
          <mxGeometry x="1174.5" y="409" width="48" height="48" as="geometry" />
        </mxCell>
        <mxCell id="3ne1QswCM8ZiEu4GHsYG-21" style="orthogonalLoop=1;jettySize=auto;html=1;curved=1;sourcePerimeterSpacing=5;targetPerimeterSpacing=5;" parent="1" edge="1">
          <mxGeometry relative="1" as="geometry">
            <Array as="points">
              <mxPoint x="484.5" y="319" />
            </Array>
            <mxPoint x="469.4999999999998" y="329.9090909090912" as="sourcePoint" />
            <mxPoint x="519.5" y="305" as="targetPoint" />
          </mxGeometry>
        </mxCell>
        <mxCell id="3ne1QswCM8ZiEu4GHsYG-22" style="orthogonalLoop=1;jettySize=auto;html=1;curved=1;sourcePerimeterSpacing=5;targetPerimeterSpacing=5;" parent="1" edge="1">
          <mxGeometry relative="1" as="geometry">
            <Array as="points">
              <mxPoint x="648.5" y="276" />
            </Array>
            <mxPoint x="634" y="280" as="sourcePoint" />
            <mxPoint x="691.5" y="271.81944444444446" as="targetPoint" />
          </mxGeometry>
        </mxCell>
        <mxCell id="3ne1QswCM8ZiEu4GHsYG-23" style="orthogonalLoop=1;jettySize=auto;html=1;curved=1;sourcePerimeterSpacing=5;targetPerimeterSpacing=5;" parent="1" edge="1">
          <mxGeometry relative="1" as="geometry">
            <Array as="points">
              <mxPoint x="700" y="340" />
              <mxPoint x="760" y="340" />
            </Array>
            <mxPoint x="640" y="320" as="sourcePoint" />
            <mxPoint x="850" y="325" as="targetPoint" />
          </mxGeometry>
        </mxCell>
        <mxCell id="3ne1QswCM8ZiEu4GHsYG-31" value="Company Goods Delivery Procedure" style="text;html=1;strokeColor=none;fillColor=none;align=center;verticalAlign=middle;whiteSpace=wrap;rounded=0;fontStyle=1;fontSize=20;fontColor=#4D4D4D;" parent="1" vertex="1">
          <mxGeometry x="189.5" y="50" width="790" height="30" as="geometry" />
        </mxCell>
        <mxCell id="3ne1QswCM8ZiEu4GHsYG-32" value="" style="line;strokeWidth=2;html=1;fontSize=20;fontColor=#4D4D4D;" parent="1" vertex="1">
          <mxGeometry x="103.5" y="80" width="960" height="10" as="geometry" />
        </mxCell>
        <mxCell id="lVpZAh8K_LY20SjphWDw-1" value="x" style="rounded=1;whiteSpace=wrap;html=1;fontFamily=Times New Roman;fontSize=33;" vertex="1" parent="1">
          <mxGeometry x="390" y="326" width="60" height="50" as="geometry" />
        </mxCell>
        <mxCell id="lVpZAh8K_LY20SjphWDw-4" value="&lt;p style=&quot;font-size: 21px;&quot;&gt;Conv1Ã—1&lt;/p&gt;" style="rounded=1;whiteSpace=wrap;html=1;fontFamily=Times New Roman;fontSize=33;" vertex="1" parent="1">
          <mxGeometry x="529" y="276" width="100" height="50" as="geometry" />
        </mxCell>
        <mxCell id="lVpZAh8K_LY20SjphWDw-5" value="" style="shape=sumEllipse;perimeter=ellipsePerimeter;whiteSpace=wrap;html=1;backgroundOutline=1;fontStyle=1;fontColor=none;noLabel=1;" vertex="1" parent="1">
          <mxGeometry x="850" y="270" width="40" height="40" as="geometry" />
        </mxCell>
        <mxCell id="lVpZAh8K_LY20SjphWDw-11" value="&lt;p style=&quot;font-size: 21px;&quot;&gt;Reshape&lt;/p&gt;" style="rounded=1;whiteSpace=wrap;html=1;fontFamily=Times New Roman;fontSize=33;" vertex="1" parent="1">
          <mxGeometry x="694" y="240" width="90" height="47" as="geometry" />
        </mxCell>
        <mxCell id="lVpZAh8K_LY20SjphWDw-13" style="orthogonalLoop=1;jettySize=auto;html=1;curved=1;sourcePerimeterSpacing=5;targetPerimeterSpacing=5;" edge="1" parent="1">
          <mxGeometry relative="1" as="geometry">
            <Array as="points">
              <mxPoint x="804.5" y="263.59" />
            </Array>
            <mxPoint x="790" y="267.59" as="sourcePoint" />
            <mxPoint x="848" y="280" as="targetPoint" />
          </mxGeometry>
        </mxCell>
        <mxCell id="lVpZAh8K_LY20SjphWDw-16" style="orthogonalLoop=1;jettySize=auto;html=1;curved=1;sourcePerimeterSpacing=5;targetPerimeterSpacing=5;" edge="1" parent="1">
          <mxGeometry relative="1" as="geometry">
            <mxPoint x="1391.5" y="350.0000000000002" as="sourcePoint" />
            <mxPoint x="1435.5" y="350.00000000000045" as="targetPoint" />
          </mxGeometry>
        </mxCell>
        <mxCell id="lVpZAh8K_LY20SjphWDw-17" value="" style="edgeStyle=orthogonalEdgeStyle;rounded=0;orthogonalLoop=1;jettySize=auto;html=1;" edge="1" source="lVpZAh8K_LY20SjphWDw-18" target="lVpZAh8K_LY20SjphWDw-25" parent="1">
          <mxGeometry relative="1" as="geometry" />
        </mxCell>
        <mxCell id="lVpZAh8K_LY20SjphWDw-18" value="Arrival to&#xa;airport/port" style="shape=image;verticalLabelPosition=bottom;verticalAlign=top;aspect=fixed;image=data:image/svg+xml,PHN2ZyB4bWxucz0iaHR0cDovL3d3dy53My5vcmcvMjAwMC9zdmciIHhtbG5zOnhsaW5rPSJodHRwOi8vd3d3LnczLm9yZy8xOTk5L3hsaW5rIiB2ZXJzaW9uPSIxLjEiIGlkPSJMYXllcl8xIiB4PSIwcHgiIHk9IjBweCIgd2lkdGg9IjQ4cHgiIGhlaWdodD0iNDhweCIgdmlld0JveD0iMCAwIDQ4IDQ4IiBlbmFibGUtYmFja2dyb3VuZD0ibmV3IDAgMCA0OCA0OCIgeG1sOnNwYWNlPSJwcmVzZXJ2ZSI+JiN4YTs8ZyBpZD0iY29sb3JfMTlfIj4mI3hhOwk8Zz4mI3hhOwkJPGNpcmNsZSBmaWxsPSIjRjE2MzYyIiBjeD0iMjciIGN5PSIxOSIgcj0iMTAiLz4mI3hhOwk8L2c+JiN4YTs8L2c+JiN4YTs8ZyBpZD0ib3V0bGluZV8xOF8iPiYjeGE7CTxnPiYjeGE7CQk8cGF0aCBmaWxsLXJ1bGU9ImV2ZW5vZGQiIGNsaXAtcnVsZT0iZXZlbm9kZCIgZmlsbD0iIzM4NEQ2OCIgZD0iTTI4LjQ0MiwxMy4xMTRsMC4wMDUtMC4wMDlsLTQtMmwtMC4wMDUsMC4wMDkgICAgQzI0LjMwOCwxMS4wNDcsMjQuMTYxLDExLDI0LDExcy0wLjMwOCwwLjA0Ny0wLjQ0MiwwLjExNGwtMC4wMDUtMC4wMDlsLTQsMmwwLjAwNCwwLjAwOUMxOS4yMywxMy4yNzksMTksMTMuNjA5LDE5LDE0djUgICAgYzAsMC4zOTEsMC4yMywwLjcyMSwwLjU1NywwLjg4NmwtMC4wMDQsMC4wMDlsNCwybDAuMDA1LTAuMDA5QzIzLjY5MiwyMS45NTMsMjMuODM5LDIyLDI0LDIyczAuMzA4LTAuMDQ3LDAuNDQyLTAuMTE0ICAgIGwwLjAwNSwwLjAwOWw0LTJsLTAuMDA1LTAuMDA5QzI4Ljc3LDE5LjcyMSwyOSwxOS4zOTEsMjksMTl2LTVDMjksMTMuNjA5LDI4Ljc3LDEzLjI3OSwyOC40NDIsMTMuMTE0eiBNMjMsMTkuMzgybC0yLTF2LTIuNzY0ICAgIGwyLDFWMTkuMzgyeiBNMjQsMTQuODgyTDIyLjIzNiwxNEwyNCwxMy4xMThMMjUuNzY0LDE0TDI0LDE0Ljg4MnogTTI3LDE4LjM4MmwtMiwxdi0yLjc2NGwyLTFWMTguMzgyeiBNMjQsMiAgICBDMTUuNzE2LDIsOSw4LjcxNiw5LDE3YzAsMTMuODkxLDE0LjYyNiwyOSwxNSwyOWMwLjE3NCwwLDE1LTE0Ljk2NiwxNS0yOUMzOSw4LjcxNiwzMi4yODQsMiwyNCwyeiBNMjQsNDMgICAgYy0wLjMyNCwwLTEzLTE0LjA1LTEzLTI2LjA0NkMxMSw5LjgsMTYuODIsNCwyNCw0czEzLDUuOCwxMywxMi45NTRDMzcsMjkuMDc0LDI0LjE1LDQzLDI0LDQzeiBNMjQsNmMtNi4wNzUsMC0xMSw0LjkyNS0xMSwxMSAgICBzNC45MjUsMTEsMTEsMTFzMTEtNC45MjUsMTEtMTFTMzAuMDc1LDYsMjQsNnogTTI0LDI2Yy00Ljk3MSwwLTktNC4wMjktOS05czQuMDI5LTksOS05czksNC4wMjksOSw5UzI4Ljk3MSwyNiwyNCwyNnoiLz4mI3hhOwk8L2c+JiN4YTs8L2c+JiN4YTs8L3N2Zz4=" vertex="1" parent="1">
          <mxGeometry x="1338.5" y="326.0000000000003" width="48" height="48" as="geometry" />
        </mxCell>
        <mxCell id="lVpZAh8K_LY20SjphWDw-19" style="orthogonalLoop=1;jettySize=auto;html=1;curved=1;sourcePerimeterSpacing=5;targetPerimeterSpacing=5;" edge="1" parent="1">
          <mxGeometry relative="1" as="geometry">
            <mxPoint x="900" y="287.0000000000002" as="sourcePoint" />
            <mxPoint x="962" y="287.0000000000002" as="targetPoint" />
          </mxGeometry>
        </mxCell>
        <mxCell id="lVpZAh8K_LY20SjphWDw-20" style="orthogonalLoop=1;jettySize=auto;html=1;curved=1;sourcePerimeterSpacing=5;targetPerimeterSpacing=5;" edge="1" parent="1">
          <mxGeometry relative="1" as="geometry">
            <mxPoint x="1494.5" y="350.00000000000045" as="sourcePoint" />
            <mxPoint x="1546.5" y="350.00000000000045" as="targetPoint" />
          </mxGeometry>
        </mxCell>
        <mxCell id="lVpZAh8K_LY20SjphWDw-21" value="Land&#xa;Transport" style="shape=image;verticalLabelPosition=bottom;verticalAlign=top;aspect=fixed;image=data:image/svg+xml,PHN2ZyB4bWxucz0iaHR0cDovL3d3dy53My5vcmcvMjAwMC9zdmciIHhtbG5zOnhsaW5rPSJodHRwOi8vd3d3LnczLm9yZy8xOTk5L3hsaW5rIiB2ZXJzaW9uPSIxLjEiIGlkPSJMYXllcl8xIiB4PSIwcHgiIHk9IjBweCIgd2lkdGg9IjQ4cHgiIGhlaWdodD0iNDhweCIgdmlld0JveD0iMCAwIDQ4IDQ4IiBlbmFibGUtYmFja2dyb3VuZD0ibmV3IDAgMCA0OCA0OCIgeG1sOnNwYWNlPSJwcmVzZXJ2ZSI+JiN4YTs8ZyBpZD0iY29sb3JfMzNfIj4mI3hhOwk8Zz4mI3hhOwkJPHBhdGggZmlsbD0iI0YxNjM2MiIgZD0iTTQ1LDIzaC01bC00LTEyYzAtMC41NTMtMC40NDctMS0xLTFoLTFoLTVIN2MtMC41NTMsMC0xLDAuNDQ3LTEsMXYyNGMwLDAuNTUzLDAuNDQ3LDEsMSwxaDI3ICAgIGMwLjE4NiwwLDAuMzUxLTAuMDY0LDAuNS0wLjE1M0MzNC42NDksMzUuOTM2LDM0LjgxNCwzNiwzNSwzNmg4YzAuNTUzLDAsMy0yLjQ0NywzLTN2LTlDNDYsMjMuNDQ3LDQ1LjU1MywyMyw0NSwyM3oiLz4mI3hhOwk8L2c+JiN4YTs8L2c+JiN4YTs8ZyBpZD0ib3V0bGluZV8zM18iPiYjeGE7CTxnPiYjeGE7CQk8cGF0aCBmaWxsPSIjMzg0RDY4IiBkPSJNMjEuMjgxLDMxLjM2MmMtMC4zNzUsMC4zNzMtMC4zNzUsMC45NzgsMCwxLjM1MXMwLjk4MiwwLjM3MywxLjM1NywwbDQuMDczLTQuMDUzICAgIGMwLjM3NC0wLjM3MywwLjM3NC0wLjk3OCwwLTEuMzUxbC00LjA3My00LjA1M2MtMC4zNzUtMC4zNzMtMC45ODItMC4zNzMtMS4zNTcsMHMtMC4zNzUsMC45NzgsMCwxLjM1MUwyMy42ODYsMjdIMTYgICAgYy0xLjY1NiwwLTMtMS4zNDMtMy0zdi00YzAtMC41NTMtMC40NDctMS0xLTFzLTEsMC40NDctMSwxdjRjMCwyLjc2MiwyLjIzOCw1LDUsNWg3LjY1NUwyMS4yODEsMzEuMzYyeiBNNDEsMjYgICAgYzAuNTUzLDAsMS0wLjQ0NywxLTFzLTAuNDQ3LTEtMS0xaC0yYy0wLjU1MywwLTEsMC40NDctMSwxczAuNDQ3LDEsMSwxSDQxeiBNMTMsMzVjLTEuNjU2LDAtMywxLjM0My0zLDNzMS4zNDQsMywzLDNzMy0xLjM0MywzLTMgICAgUzE0LjY1NiwzNSwxMywzNXogTTEzLDM5Yy0wLjU1MywwLTEtMC40NDctMS0xczAuNDQ3LTEsMS0xczEsMC40NDcsMSwxUzEzLjU1MywzOSwxMywzOXogTTI4LDM1SDE4Yy0wLjU1MywwLTEsMC40NDctMSwxICAgIHMwLjQ0NywxLDEsMWgxMGMwLjU1MywwLDEtMC40NDcsMS0xUzI4LjU1MywzNSwyOCwzNXogTTQyLDIwaC0yYy0xLjEwNCwwLTItMC44OTYtMi0ybC0yLTdjMC0yLjIwOS0xLjc5MS00LTQtNEgzICAgIEMyLjQ0Nyw3LDIsNy40NDcsMiw4djI4YzAsMC41NTMsMC40NDcsMSwxLDFoNWMwLjU1MywwLDEtMC40NDcsMS0xcy0wLjQ0Ny0xLTEtMUg0VjloMjhjMS4xMDQsMCwyLDAuODk2LDIsMmwyLDcgICAgYzAsMi4yMDksMS43OTEsNCw0LDRoMmMxLjEwNCwwLDIsMC44OTYsMiwydjljMCwxLjEwNC0wLjg5NiwyLTIsMmgtNGMtMC41NTMsMC0xLDAuNDQ3LTEsMXMwLjQ0NywxLDEsMWg0YzIuMjA5LDAsNC0xLjc5MSw0LTR2LTkgICAgQzQ2LDIxLjc5MSw0NC4yMDksMjAsNDIsMjB6IE0zMiwyMmMxLjEwNCwwLDItMC44OTYsMi0ybC0yLTdjMC0xLjEwNC0wLjg5Ni0yLTItMmgtNGMtMS4xMDQsMC0yLDAuODk2LTIsMnY3YzAsMS4xMDQsMC44OTYsMiwyLDIgICAgSDMyeiBNMjYsMTNoNGwyLDdoLTZWMTN6IE0zMywzNWMtMS42NTYsMC0zLDEuMzQzLTMsM3MxLjM0NCwzLDMsM3MzLTEuMzQzLDMtM1MzNC42NTYsMzUsMzMsMzV6IE0zMywzOWMtMC41NTMsMC0xLTAuNDQ3LTEtMSAgICBzMC40NDctMSwxLTFzMSwwLjQ0NywxLDFTMzMuNTUzLDM5LDMzLDM5eiIvPiYjeGE7CTwvZz4mI3hhOzwvZz4mI3hhOzwvc3ZnPg==" vertex="1" parent="1">
          <mxGeometry x="1440.5" y="326.00000000000034" width="48" height="48" as="geometry" />
        </mxCell>
        <mxCell id="lVpZAh8K_LY20SjphWDw-22" style="orthogonalLoop=1;jettySize=auto;html=1;curved=1;sourcePerimeterSpacing=5;targetPerimeterSpacing=5;" edge="1" parent="1">
          <mxGeometry relative="1" as="geometry">
            <mxPoint x="1604.5" y="350.0000000000002" as="sourcePoint" />
            <mxPoint x="1646.5" y="350" as="targetPoint" />
          </mxGeometry>
        </mxCell>
        <mxCell id="lVpZAh8K_LY20SjphWDw-23" value="Delivery" style="shape=image;verticalLabelPosition=bottom;verticalAlign=top;aspect=fixed;image=data:image/svg+xml,PHN2ZyB4bWxucz0iaHR0cDovL3d3dy53My5vcmcvMjAwMC9zdmciIHhtbG5zOnhsaW5rPSJodHRwOi8vd3d3LnczLm9yZy8xOTk5L3hsaW5rIiB2ZXJzaW9uPSIxLjEiIGlkPSJMYXllcl8xIiB4PSIwcHgiIHk9IjBweCIgd2lkdGg9IjQ4cHgiIGhlaWdodD0iNDhweCIgdmlld0JveD0iMCAwIDQ4IDQ4IiBlbmFibGUtYmFja2dyb3VuZD0ibmV3IDAgMCA0OCA0OCIgeG1sOnNwYWNlPSJwcmVzZXJ2ZSI+JiN4YTs8ZyBpZD0iY29sb3JfNTdfIj4mI3hhOwk8Zz4mI3hhOwkJPHBhdGggZmlsbD0iI0ZGREE4RSIgZD0iTTIzLDhjMC41NTIsMCwxLTAuNDQ3LDEtMVYzYzAtMC41NTMtMC40NDgtMS0xLTFzLTEsMC40NDctMSwxdjRDMjIsNy41NTMsMjIuNDQ4LDgsMjMsOHogTTI4Ljc2Miw4LjY5MiAgICBsMi45MzgtMi45MzhjMC40MDYtMC40MDYsMC40MDYtMS4wNjMsMC0xLjQ3Yy0wLjQwNi0wLjQwNS0xLjA2My0wLjQwNS0xLjQ2OSwwbC0yLjkzOCwyLjkzOGMtMC40MDYsMC40MDYtMC40MDYsMS4wNjQsMCwxLjQ3ICAgIFMyOC4zNTYsOS4wOTgsMjguNzYyLDguNjkyeiBNMTcuMjM4LDguNjkyYzAuNDA2LDAuNDA1LDEuMDYzLDAuNDA1LDEuNDY5LDBzMC40MDYtMS4wNjMsMC0xLjQ3bC0yLjkzOC0yLjkzOCAgICBjLTAuNDA2LTAuNDA1LTEuMDY0LTAuNDA1LTEuNDcsMGMtMC40MDUsMC40MDYtMC40MDUsMS4wNjMsMCwxLjQ3TDE3LjIzOCw4LjY5MnogTTQyLDIyaC05LjM4MmwtMy43MjQtNy40NDdsLTAuMDA5LDAuMDA1ICAgIEMyOC43MjEsMTQuMjMsMjguMzkxLDE0LDI4LDE0SDEwYy0wLjU1MiwwLTEsMC40NDctMSwxYzAsMC4xNjEsMC4wNDcsMC4zMDgsMC4xMTUsMC40NDJsLTAuMDA5LDAuMDA1TDExLDE5LjIzNlY0NSAgICBjMCwwLjU1MywwLjQ0OCwxLDEsMWgzMGMwLjU1MiwwLDEtMC40NDcsMS0xVjIzQzQzLDIxLjk0Myw0MiwyMiw0MiwyMnoiLz4mI3hhOwk8L2c+JiN4YTs8L2c+JiN4YTs8ZyBpZD0ib3V0bGluZV81NV8iPiYjeGE7CTxnPiYjeGE7CQk8cGF0aCBmaWxsPSIjMzg0RDY4IiBkPSJNNDYsMTFjMC0wLjU1My0wLjQ0OC0xLTEtMUgzNWMtMC41NTIsMC0xLDAuNDQ3LTEsMXMwLjQ0OCwxLDEsMWg4LjM4MmwtNCw4aC02Ljc2NGwtNC43MjQtOS40NDcgICAgbC0wLjAwOSwwLjAwNUMyNy43MjEsMTAuMjMsMjcuMzkxLDEwLDI3LDEwSDNjLTAuNTUyLDAtMSwwLjQ0Ny0xLDFjMCwwLjE2MSwwLjA0NywwLjMwOCwwLjExNSwwLjQ0MmwtMC4wMDksMC4wMDVMNywyMS4yMzZWNDMgICAgYzAsMC41NTMsMC40NDgsMSwxLDFoMzJjMC41NTIsMCwxLTAuNDQ3LDEtMVYyMS4yMzZsNC44OTUtOS43ODlsLTAuMDA5LTAuMDA1QzQ1Ljk1MywxMS4zMDgsNDYsMTEuMTYxLDQ2LDExeiBNNC42MTgsMTJoMjEuNzY0ICAgIGw0LDhIOC42MThMNC42MTgsMTJ6IE0zMSw0MWMwLDAuNTUzLTAuNDQ4LDEtMSwxSDlWMjJoMjFjMC41NTIsMCwxLDAuNDQ3LDEsMVY0MXogTTM5LDQyaC01Yy0wLjU1MiwwLTEtMC40NDctMS0xVjIzICAgIGMwLTAuNTUzLDAuNDQ4LTEsMS0xaDVWNDJ6Ii8+JiN4YTsJPC9nPiYjeGE7PC9nPiYjeGE7PC9zdmc+" vertex="1" parent="1">
          <mxGeometry x="1550.5" y="326.00000000000034" width="48" height="48" as="geometry" />
        </mxCell>
        <mxCell id="lVpZAh8K_LY20SjphWDw-24" value="Administration" style="shape=image;verticalLabelPosition=bottom;verticalAlign=top;aspect=fixed;image=data:image/svg+xml,PHN2ZyB4bWxucz0iaHR0cDovL3d3dy53My5vcmcvMjAwMC9zdmciIHhtbG5zOnhsaW5rPSJodHRwOi8vd3d3LnczLm9yZy8xOTk5L3hsaW5rIiB2ZXJzaW9uPSIxLjEiIGlkPSJMYXllcl8xIiB4PSIwcHgiIHk9IjBweCIgd2lkdGg9IjQ4cHgiIGhlaWdodD0iNDhweCIgdmlld0JveD0iMCAwIDQ4IDQ4IiBlbmFibGUtYmFja2dyb3VuZD0ibmV3IDAgMCA0OCA0OCIgeG1sOnNwYWNlPSJwcmVzZXJ2ZSI+JiN4YTs8ZyBpZD0iY29sb3JfNTFfIj4mI3hhOwk8Zz4mI3hhOwkJPHBhdGggZmlsbD0iIzg5OENDNSIgZD0iTTQzLDZoLTV2NGMwLDEuMTA0LTAuODk2LDItMiwyaC0yYy0xLjEwNCwwLTItMC44OTYtMi0yVjZIMTh2NGMwLDEuMTA0LTAuODk2LDItMiwyaC0yICAgIGMtMS4xMDQsMC0yLTAuODk2LTItMlY2SDlDOC40NDcsNiw4LDYuNDQ3LDgsN3YzOGMwLDAuNTUzLDAuNDQ3LDEsMSwxaDM0YzAuNTUzLDAsMS0wLjQ0NywxLTFWN0M0NCw2LjQ0Nyw0My41NTMsNiw0Myw2eiIvPiYjeGE7CTwvZz4mI3hhOzwvZz4mI3hhOzxnIGlkPSJvdXRsaW5lXzQ5XyI+JiN4YTsJPGc+JiN4YTsJCTxwYXRoIGZpbGw9IiMzODRENjgiIGQ9Ik0xNS43MTUsMjguMjg1Yy0wLjM3NS0wLjM3NS0wLjk4Mi0wLjM3NS0xLjM1NywwTDEzLDI5LjY0M2wtMS4zNTctMS4zNTcgICAgYy0wLjM3NS0wLjM3NS0wLjk4Mi0wLjM3NS0xLjM1NywwYy0wLjM3NSwwLjM3NC0wLjM3NSwwLjk4MiwwLDEuMzU3TDExLjY0MywzMWwtMS4zNTcsMS4zNTdjLTAuMzc1LDAuMzc1LTAuMzc1LDAuOTgzLDAsMS4zNTcgICAgYzAuMzc1LDAuMzc1LDAuOTgyLDAuMzc1LDEuMzU3LDBMMTMsMzIuMzU3bDEuMzU3LDEuMzU3YzAuMzc1LDAuMzc1LDAuOTgyLDAuMzc1LDEuMzU3LDBjMC4zNzUtMC4zNzQsMC4zNzUtMC45ODIsMC0xLjM1NyAgICBMMTQuMzU3LDMxbDEuMzU3LTEuMzU3QzE2LjA5LDI5LjI2OCwxNi4wOSwyOC42NTksMTUuNzE1LDI4LjI4NXogTTE1LjcxNSwxOC4yODVjLTAuMzc1LTAuMzc1LTAuOTgyLTAuMzc1LTEuMzU3LDBMMTMsMTkuNjQzICAgIGwtMS4zNTctMS4zNTdjLTAuMzc1LTAuMzc1LTAuOTgyLTAuMzc1LTEuMzU3LDBjLTAuMzc1LDAuMzc0LTAuMzc1LDAuOTgyLDAsMS4zNTdMMTEuNjQzLDIxbC0xLjM1NywxLjM1NyAgICBjLTAuMzc1LDAuMzc1LTAuMzc1LDAuOTgyLDAsMS4zNTdzMC45ODIsMC4zNzUsMS4zNTcsMEwxMywyMi4zNTdsMS4zNTcsMS4zNTdjMC4zNzUsMC4zNzUsMC45ODIsMC4zNzUsMS4zNTcsMCAgICBzMC4zNzUtMC45ODIsMC0xLjM1N0wxNC4zNTcsMjFsMS4zNTctMS4zNTdDMTYuMDksMTkuMjY4LDE2LjA5LDE4LjY1OSwxNS43MTUsMTguMjg1eiBNNDEsNmgtNVY0YzAtMS4xMDQtMC44OTYtMi0yLTJoLTIgICAgYy0xLjEwNCwwLTIsMC44OTYtMiwydjJIMTZWNGMwLTEuMTA0LTAuODk2LTItMi0yaC0yYy0xLjEwNCwwLTIsMC44OTYtMiwydjJINUM0LjQ0Nyw2LDQsNi40NDcsNCw3djM4YzAsMC41NTMsMC40NDcsMSwxLDFoMzYgICAgYzAuNTUzLDAsMS0wLjQ0NywxLTFWN0M0Miw2LjQ0Nyw0MS41NTMsNiw0MSw2eiBNMzIsNWMwLTAuNTUzLDAuNDQ3LTEsMS0xczEsMC40NDcsMSwxdjRjMCwwLjU1My0wLjQ0NywxLTEsMXMtMS0wLjQ0Ny0xLTFWNXogICAgIE0xMiw1YzAtMC41NTMsMC40NDctMSwxLTFzMSwwLjQ0NywxLDF2NGMwLDAuNTUzLTAuNDQ3LDEtMSwxcy0xLTAuNDQ3LTEtMVY1eiBNNDAsNDRINlY4aDR2MmMwLDEuMTA0LDAuODk2LDIsMiwyaDIgICAgYzEuMTA0LDAsMi0wLjg5NiwyLTJWOGgxNHYyYzAsMS4xMDQsMC44OTYsMiwyLDJoMmMxLjEwNCwwLDItMC44OTYsMi0yVjhoNFY0NHogTTM0LDIwSDIwYy0wLjU1MywwLTEsMC40NDctMSwxczAuNDQ3LDEsMSwxaDE0ICAgIGMwLjU1MywwLDEtMC40NDcsMS0xUzM0LjU1MywyMCwzNCwyMHogTTMwLDMwSDIwYy0wLjU1MywwLTEsMC40NDctMSwxczAuNDQ3LDEsMSwxaDEwYzAuNTUzLDAsMS0wLjQ0NywxLTFTMzAuNTUzLDMwLDMwLDMweiIvPiYjeGE7CTwvZz4mI3hhOzwvZz4mI3hhOzwvc3ZnPg==" vertex="1" parent="1">
          <mxGeometry x="1650.5" y="326.0000000000001" width="48" height="48" as="geometry" />
        </mxCell>
        <mxCell id="lVpZAh8K_LY20SjphWDw-25" value="Arrival to&#xa;airport/port" style="shape=image;verticalLabelPosition=bottom;verticalAlign=top;aspect=fixed;image=data:image/svg+xml,PHN2ZyB4bWxucz0iaHR0cDovL3d3dy53My5vcmcvMjAwMC9zdmciIHhtbG5zOnhsaW5rPSJodHRwOi8vd3d3LnczLm9yZy8xOTk5L3hsaW5rIiB2ZXJzaW9uPSIxLjEiIGlkPSJMYXllcl8xIiB4PSIwcHgiIHk9IjBweCIgd2lkdGg9IjQ4cHgiIGhlaWdodD0iNDhweCIgdmlld0JveD0iMCAwIDQ4IDQ4IiBlbmFibGUtYmFja2dyb3VuZD0ibmV3IDAgMCA0OCA0OCIgeG1sOnNwYWNlPSJwcmVzZXJ2ZSI+JiN4YTs8ZyBpZD0iY29sb3JfMTlfIj4mI3hhOwk8Zz4mI3hhOwkJPGNpcmNsZSBmaWxsPSIjRjE2MzYyIiBjeD0iMjciIGN5PSIxOSIgcj0iMTAiLz4mI3hhOwk8L2c+JiN4YTs8L2c+JiN4YTs8ZyBpZD0ib3V0bGluZV8xOF8iPiYjeGE7CTxnPiYjeGE7CQk8cGF0aCBmaWxsLXJ1bGU9ImV2ZW5vZGQiIGNsaXAtcnVsZT0iZXZlbm9kZCIgZmlsbD0iIzM4NEQ2OCIgZD0iTTI4LjQ0MiwxMy4xMTRsMC4wMDUtMC4wMDlsLTQtMmwtMC4wMDUsMC4wMDkgICAgQzI0LjMwOCwxMS4wNDcsMjQuMTYxLDExLDI0LDExcy0wLjMwOCwwLjA0Ny0wLjQ0MiwwLjExNGwtMC4wMDUtMC4wMDlsLTQsMmwwLjAwNCwwLjAwOUMxOS4yMywxMy4yNzksMTksMTMuNjA5LDE5LDE0djUgICAgYzAsMC4zOTEsMC4yMywwLjcyMSwwLjU1NywwLjg4NmwtMC4wMDQsMC4wMDlsNCwybDAuMDA1LTAuMDA5QzIzLjY5MiwyMS45NTMsMjMuODM5LDIyLDI0LDIyczAuMzA4LTAuMDQ3LDAuNDQyLTAuMTE0ICAgIGwwLjAwNSwwLjAwOWw0LTJsLTAuMDA1LTAuMDA5QzI4Ljc3LDE5LjcyMSwyOSwxOS4zOTEsMjksMTl2LTVDMjksMTMuNjA5LDI4Ljc3LDEzLjI3OSwyOC40NDIsMTMuMTE0eiBNMjMsMTkuMzgybC0yLTF2LTIuNzY0ICAgIGwyLDFWMTkuMzgyeiBNMjQsMTQuODgyTDIyLjIzNiwxNEwyNCwxMy4xMThMMjUuNzY0LDE0TDI0LDE0Ljg4MnogTTI3LDE4LjM4MmwtMiwxdi0yLjc2NGwyLTFWMTguMzgyeiBNMjQsMiAgICBDMTUuNzE2LDIsOSw4LjcxNiw5LDE3YzAsMTMuODkxLDE0LjYyNiwyOSwxNSwyOWMwLjE3NCwwLDE1LTE0Ljk2NiwxNS0yOUMzOSw4LjcxNiwzMi4yODQsMiwyNCwyeiBNMjQsNDMgICAgYy0wLjMyNCwwLTEzLTE0LjA1LTEzLTI2LjA0NkMxMSw5LjgsMTYuODIsNCwyNCw0czEzLDUuOCwxMywxMi45NTRDMzcsMjkuMDc0LDI0LjE1LDQzLDI0LDQzeiBNMjQsNmMtNi4wNzUsMC0xMSw0LjkyNS0xMSwxMSAgICBzNC45MjUsMTEsMTEsMTFzMTEtNC45MjUsMTEtMTFTMzAuMDc1LDYsMjQsNnogTTI0LDI2Yy00Ljk3MSwwLTktNC4wMjktOS05czQuMDI5LTksOS05czksNC4wMjksOSw5UzI4Ljk3MSwyNiwyNCwyNnoiLz4mI3hhOwk8L2c+JiN4YTs8L2c+JiN4YTs8L3N2Zz4=" vertex="1" parent="1">
          <mxGeometry x="1466.5" y="326.0000000000003" width="48" height="48" as="geometry" />
        </mxCell>
        <mxCell id="lVpZAh8K_LY20SjphWDw-26" value="" style="shape=image;verticalLabelPosition=bottom;labelBackgroundColor=default;verticalAlign=top;aspect=fixed;imageAspect=0;image=data:image/png,iVBORw0KGgoAAAANSUhEUgAAAH0AAAB8CAYAAABE3L+AAAAWtElEQVR4nO2dfVhUZfrHP5jCtEv+CFsdNGG0yQaiHLQUjGLw1xa6KZimgC/MVCb4hmhdSmsqZoK9SCol5CaYmwOuCdKLoAXjpoKWOpbipLM16hqjrYhGOWIt+wfLLCgow5wzDBOff7yYOeee+/J7npfzPPdz3251dXV1tAKLxUJ5eTkAOp2uNbd04gCUSiVeXl7Wf1uD281ELygoYMOGDeh0OpRKJQBhYWH2e9uJIBw+fJjq6mr0ej0KhYK4uDji4+NvfFNdCxw7dqxOpVLVRUVF1eXn59ddvny5pUs7cRLKysrq4uPj6xQKRV1paWmL1zUr+vbt2+uCg4NveGMnzktDg01PT2/2++u695ycHPLy8tBqta0eIzpxTpKSkqiuriY7O7vJ510a/6HT6cjLyyM/P79TcBcgPT0dLy8v3nzzzaZfNDT5ysrKOoVCUXfhwgUHdUKdOAqVStVkqLaKHh0dXafVatvFqU7E5dChQ3VKpdL6dxcAvV6PwWAgOjq6PXqhTkRGqVSiVCrJyckB/jum5+XlMWHChHZ1rBNxmTBhAnl5ecB/F2f8/f3Jz89HoVC0s2udiIXFYsHHx4fKysp60d3c3Khr3WpsJx2YoKAgsrOz6WIymZDJZO3tTycOQCqVYjab6WI2m5FKpe3tTycOwCq6xWJBIpG0tz83pKioiElT1ATcPxA3Nzfc3Ny401fGyNGR5OTkUF1d3d4udii6trcDN8JsNhM7JY4Ll38lIPwJnnhsEtMG3AtAVeVpzhw/yl/yi0l5JZW1a1YRERHRzh53DJxW9PXZ2SxdnkbEzMX4h4Rf9723T1+8ffpyX1gEl86fI/mVeWzcpOWt1as6l5BvQpebX+J4Xn4llXWbPyQ+s7BZwa+le4+eqN/YSJf+gwj/4+NYLBYHeNlxcTrR9Xo9m7ZsZeyfV3Lrbd1tuveBkeORBf+RhYuXiOSda+BUolssFjRTpzFqXird3D3aZOOhCc/y8Y7P0Ov1AnvnOjiV6C8vT6Xv4Efo89/JWlvo5u7BqHmpxE6JE9Az18JpRLdYLGRlZTHsqWftttVnwL10ufW2zgDOFnAa0XU6HX0HBNo8jrfEgIceY2tBgSC2hMBkMqHT6TCbze3tivO8spnNZn7v/QfB7PX0k3Pk4w2C2bMVi8XCyvR0PvqkiANf7Of2P/Tkjt59qfzOSBc3uG/gQJ57WtMu29lOI7rJZOK2nn0Es9e1a1d+uWKhsLCQ0NBQvL29BbN9M8rLy9FMnYbfA2EMnjibJ1MHN5mYXjp/jjPHj7Jqw2ZWv7WW9euyHLrD6TSie3l5UXuiUjB7brfcwq91YDQaycnJwdfXl+HDh4v6AFgsFl6Yv4Cdu/bw5EsZ9JLJm72ue4+edA/piX9IOMaDe3li7Hjin9Hw/NwkUfy6FqcZ06VSKT9X/SCYvarvT9NP1o+5c+eydetW1Go1RqORZ599ljlz5lBYWEhVVZVgvwfwwvwFHP3hZxLeKWxR8GuRDxpGfFYhH+z8nPXXRK2KhdOIrlKpOH5gr2D2Th7ex6PDVda/lUqlqA9AeXk5O3ftIXJOis33dnP3YOTsxaS98aZDJnpOI7pUKmWgciDHykrttnW19gqGslKioqKa/V7oB8BisZAwK5HRz6e22efuPXoSGpvA9NmJbbbRWpxGdID172SxfU0KV2uv2GXn49VLWJqyuFUbL0I8AG+vXcsdA5R2LSoBDHw0ku8qz1NUVGSXnZvhVKLLZDLmz5vDx6vbvnZuOnKAi6ZjTE9IsPnetj4An5bq8FMGt9nnxvT2V1JWVi6IrZZwKtEBpickcNX8HYeKtth8b1XlabSLp7PpPfvfz215AL7Ytw+/wEF2/yaAz9338sWhQ4LYagmneWVrjOqRh9n790K+PbiXkbOWtGqV7stPNrP7/bfx6OImuD8NceNz585Fr9dTUlJifQ0MCQnh6tWrdO/RU5Df8gscxLbXkwWx1RJO19IBqqqqyFi9CnXkY2TGj+bgzm0tjvPGg3vJmTeZf397kENf7CMpKYmsrCzRfLu2Bzh48CD95AMEs9+9R0/+de6sYPaawylb+qlTp/D19SUgIICRI0YwY/YcUl5dgJ8isMl1ld8Zueeee0j9c7I1VEqtVuPv709qaqrosX9KpRKFQsGbq24XzOZZk5H+d98jmL3mcDrRa2pqAPD09ATqX+U+2JzbJP1JAwqF4rpIXi8vL6Kjo8nMzGTOnDmi+yuRSLhrwADOHD9q9+wd4MyJo9aMH2LhdKI3tPJrkUgkqFSqZu64nri4ODQajUNEBxikDOLM8SOCiP7PikOMGibMm0BLON2YLkQcfkPSHUftp0+Kjaai9CO77VytvcJJfZnoUb0uKTpAYmIiq1atEsCjmxMREUE/nx4c/nSbXXZK1q9EPTFG9B03pxO9pe7dVqKioigvL3dY0MLbq1exe9NaLp0/16b7zxw/iunLXSx8UdzXNXBh0cGxrV0qlTLhyUjWTh9LVeVpm+41HTmALuMl3t+QI5J3TXE60YU8W6dWq8nNzXVIHLzJZOKjDz9kzesr2PjCZHQb37rpPVdrr1CcmcquzJcJGTqEn376SXQ/wclEr6mpoba2VrAgB6lUikqlIjc3VxB7LVFdXU1MTAxarZaxY8dS8dVh7vrdL7wRG0bhqiXs/yiPM8ePAvWtes/W98h/LZk16scZJvfh4P59BAUFYTQaRfWzAacSXYwTtI7o4jUaDfPnz7dOwCQSCa+vSGPHR4WMetAfN5Oej16dx5yhvdmV+TL/d+E7ov8/mF2fFlvHcLlc7jDRneo9XQzRGxY69Hq9KIseycnJDB06tNm9e4VC0eqZuCNFd6qWLuQkrjFitfaCggIMBgMLFiyw25ZUKqWmpsa6IikmTiW6WAkSoqOjBY851+v1rFixAq1WK5hNR7V2pxJdrJYukUiIjo62ptSyF7PZTEJCAlqtVtBNHUeJ7pAx3WAwYDabKS8vRyqVIpPJms1PLpboUN/FBwUFXdcVGwwGtNpcdpY0jc0bP3YMUVFR1+XjsVgsaDQaUlNTBc/VExAQwO7duwW12Ryiir41P58X5idz9d//pnuPnvQJGMRPZYepNp/mpOEID4eFsfLVFSgUCmpra6mpqREtJl0qlRIcHExBQQFRUVFUV1czY3Yin+8t477hoxk8cXaT6z/8fAdpb6QzKTaGZSlLrC06KSmJyMjIVm/+2IKvry+nTp0S3O61iCJ6w3/oie//xYRl61qMAf96VxFPjB2PemIMUyZNFD3hUWJiIikpKUgkEhJmJRI6cTrzZqY1e6180DBGJy5Bt/Etgh4cSva6LOvx55sm0W8jcrmcU6dOUVtbi7u7uyi/ASKIrtPp0EydRujE6UycOf6G194XFoEiJJyS9Sv5cEI0D4WIu6WoUql4avx4nl+8nKdXb25ViJNq8gz8H36cmLhnuP33Evbu3SOqjw3jekBAgGi/IehEzmQyEffsNJ5evZkHRt5Y8Aa6uXvweHwyQ+PmsbNUJ+qSaVFREb3vDmTqmjybYtp6yeTMePdjfv61fg4gJo6YzAkqeuzkOEY/v7xNQYJ3DRqGPHSkaKlDqqurSZiVyLiF6W26v5u7B6NfWIFm6jRRH8wOJfrba9fi4dMP+aBhbbahmjyDj4o/uy4sSghmzK4fw+2JWu0z4F76Dn6El5e3/STLzegwolssFuYvSOZPs+1vpSNmLxb8aI/JZOKzUl2rh5wb8cikGaxetUq01t5hRC8oKCBw2PA2JwdqjCxwMN9XmjGZTAJ4Vs8mrRblo5GC2Orm7kHgsOEUiJTlwt3dHV9fX1GFF0T0z0p19B04VAhTQP3rkpDxbRXHvqFH3/6C2fO6s7+oEzqx39cFeWU7U1lJb7lwov++Ry90Ol2zK15ms9nm//A9e3YTHhAqlHt06dqVv4u4chYQEEBFRQXDhw8Xxb4goldfqOYugRIEAVw6/wPHv9rLyZMnr/tOKpVyzz22HQa49dZb6XLLLUK5R9du7pgrK9FoNNaKSELi6+vL/v37BbXZGEFE79+vH1XfnwZhzvDxO09PEhMTBYtbN35r4vKPFwWxBVB7+WfGP/UUMpmM8PBw1q5dS3CwcAtLDS1dLAQZ0+/qJ6Pa/E8hTAFQdeofgoYBPzpcxcnD+wSzd/qrclQqFWq1mvz8fJKSkkhLa345ty14enri6ekpWiSvIKLHxETzdUmhEKa4/OMlTh8/IuiGRlRUFIayUruTHUB9ZqizJqPVP5lMRllZGRcvXiQkJEQwocR8dRNEdIVCwZ0+PhgP2p8zZl/BRtRqtaD71F5eXsyZk0jJ+pV229q+JoVVb16/qpeamkp6ejrh4eGCBGI6vegAmzZuoPD1F+1qTWdNRgy6D1mWIvxS7MIXkzEf2YfpyIE22zj86Taknt2IjYlp9vvg4GDKysrYtm0bGo3GrgWcDiG6EKlDti6fS/a6LNGOGG96bwMfvvEil3+8ZPO9VZWn2b1pLW+vvnGsnZeXF1qtlrCwMEJCQtq8pCzmZE7QDZfpCQm4VVdSnJlqU4u/dP4cG5+fRFDA3YLOgq9FoVCwdGEymfGjbcpi9eUnm3nv+cls/uuGVu/5q9VqtFotycnJbZrkeXt7WwNLhEbwGLmSHcUMk/uQOW10q7rSLz/ZzPrZ41n24gvETZki6Cy4OWJjYij/fBfHP97AB8vn3vDsWVXl6SZZLmwNoVYoFGzfvp2LFy8SHh5u8yRPrNYuSuTMwheTGffkGGKnxLHTrRsB4aOui5759mAZX5cU8vCwEA59sa/JAkdaWpogYcUtIZVKKdlRzPrsbOarH6eXTE7f+4O5/OMlunp40M3dg+N7dnCl5hJ/eSfTrqPDEomE1NRUdDod4eHhpKent9pew3LskCFD2vz7zeFWWlpal5KSQmmp/Un7mkOn0/G+NpejFceafP7H4eHExEQ3+z7eELWqVqtF8ak5H3U6Hdu2bcPPzw+lUklUVJTghyMajj/JZDLS09Obnbvk5uai1x/m73v2cvxYBR4e7vTqcyeDg4IYHKQkOjq6zSuAGo2GsLAw8UVvK44WHmDMmDHExcW1mGlSKDIzM8nKyiI7O9v6YBkMBmKnxOHRow939PdHdt8g/ALrs0ebjhzgzPGjnPvHMU7qy9pcjqxBdKc61tQYtVpNRkYGW7ZsYdy4cQ75TUdVo4yPj0elUqHRaBg7diyW2qvkvK9l1LzlyAIHX3e9LHCw9XMhypE51WGHa5k5cyZGo1H0tJkNOLIEqUKhoLS0lHXvvssnZXriswqbFfxahChH5tSiAyxYsAC9Xu8Q4R1dbHhrfj49+vkz4aU3bQ5AsaccmdOLDvXCl5SUiLrdWF1d7dDKjWazmSWvpDFi1uI222hrTGGHEB1g2bJlFBYWiia8o6tLT5+dSGhsgt3pRZ98caXNEbodRnR3d3cWLVrEli1bRCm052jRPy0uZsDQm5cUvRm9ZHJqf62zKZqow4gO/xM+JydH8M0IR47nBoMBrz/0FKwcWd97B9nUxXco0aE+wGDZsmVkZGQIKrwjx3S9Xk+fuwNvfmEr6XmXPwcOtb7363CiQ73wixYtYuXKlYIFLZw9e5ZevXoJYutm6PWHuaO/v2D2esnk16143ogOKTrU70ItWrSItLQ0QYR35Jguk/nx47kzgtm7dP4HfHx8Wn19hxUd6jdOFixYwNKlS+2utuTIMT04OJjTRw8KZu+fFYd42IYkwh1adKgXfu7cuSxdutSuvWdHjukKhYJzZ04JErMHcNZoW7rwDi861IcWzZw5k4ULF7ZZeEd27xKJhPvuH8hJO0K3Grh0/hw/Vf3w2xMd6oV/7rnnWLhwIbW1tTbf7+j39PXrhClHtn1NCq8sXWJTL+UyokN9pElsbCxLly61SXhHr7lDfRevnhhjV4TuzQI1W8KlRAcYMmQIo0ePtkl4R6+7N9AQofv1Lts3k86ajK0K1GwOlxMd6oUPDQ1l5crWtSJHd+2NKdlRzLc7c8mZN7lVueIbMkfnLZxqU6BmY5w2iMJeGiJLWhNv156ie3l5UbKjmKKiIhJmjWdA6OMMGBpGn7sDmyzTGg/u5czxo3xVvAX1xBg+Wd/2o9IuKzrUC19TU0NGRgYzZ85Ep9Pxl/U56HQ6zpz+34nY3nf2pU/v3hgMBocWr7/W1/17d/Paa6+xd9Madpwz43nbbVz5pY6j+gOEhD7CA4ODWP7BZrt9dGnRAcaNG0dGRgYPh6m4YPmFgY+P45k10/H26Wu9xniojO9PHOOxJ0bz8LAQ3nh1hagt32g0UlVVRUVFBWazGbPZjNFopLa2loCAAB57dDi+vr50794dHx8fQkJCBP19lxddr9fzTvZ7PDR5FophjzZ7jTwoBHlQCI+Mf5ovP9nMY38aTeEHm+2a0TeIWVFRQU1NTROB5XI53t7eBAQEoFQqkUqlyOVyay06sXFp0XU6HXOSX2LMoowmLftGPDByPP2DQoh4IpLy3btuOKuvqanBaDRy6tQpa8utqqrCaDQilUqRSqUEBATg6emJWq22ftbeuKzo5eXlxCe9gPr1v9q8b+3t05cRc18hYlQkup3FGAyGZgV2d3dHLpfj6+uLt7c348aNw9vbG7m8+bSozoJLim6xWNBMncaTL2W0OVBBFjiY86rRREREoFQq8fT0RC6XExoaau2axczfKiYuKXpubi49+ge0mIi4tQweFYtOm0VmZma7zerFwCUXZ1a/vZYHIycKYiso4inWC1QcwFlwOdGrq6s58c03rTo40Br6Dwrh0xLnOvJlLy4nusFgoE+/uwWz12dAIEe/+kowe86Ay4lusVjo6mF/utIGurl7UHtF/AqOjsTlRBeaq7VXcPcQJx1Ke+FyoiuVSk4ajghm75zJyF0DBghmzxlwOdG9vLzo6+dnrW1qL6YjB3hI4LXv9sblRAd4VqPm0Pa/CWLrQOH7zEgQp1BPe+GSosfGxHBiv65NqcMaYzy4l149bhelRmt74pKiS6VSctZl8beUGW0OPLxae4Xta1JYvy5LYO/aH5cUHerLcc1LeIaty+fafO/lHy/x7qynWP36Cpdafm3AZUWH+m5+xEMPkrt4Rqviz6A+d9y7s59Cm72OkSNGiOxh++CSGy6NeenPyfTJzubl2ePpP0TF0MhJzW7EmI4c4Itt7/P9sYOU7Ch2eEi0I3F50QGe1mh4cswYcnJyWLNwKt+e+IZ7hzxk/f7E4QPce//9zJ6eQHRetmi5aZ2F34To0JD+e461WkTjwkDBwcEuL3RjuspkMkHLYXUUxKiK7Ow0HOroIpVKRSsb0Ylz0RDf30UikeDl5dUp/G+AhjN7XaA+0N5RWRk7aR/0er01GrcLwIQJE8jLy2tvvzoRkYKCAiIj60uPWlu62WwWJT9bJ+2P2Wxm27ZtxMfXbxxZV+TS09NJSkpqN8c6EY8VK1YQFxdnPWhhFV2lUhEcHCx6OY1OHEtRUREGg6FpNcu6a4iIiKjTarXXftxJB6SsrKxOqVTWXbhwocnnbnV1dXWNnwyLxYJGo0EqlZKamvqbWqlyJdLS0iguLiY7O/u6fYTrdtkkEglarRY/Pz/8/f2tZTU66RgUFRURFBTExYsX2b59e7MbR9e19MaYzWaSk5PJzc0lIiKCgQMHolAonOLkZSf1WCwWysvLOXnyJEVFRSiVSlJTU28Y7XND0RsbLioqQq/X880333Su3jkREomEoUOHIpPJiIiIaFWD/A//jJSdwfCBrgAAAABJRU5ErkJggg==;" vertex="1" parent="1">
          <mxGeometry x="960" y="228" width="125" height="124" as="geometry" />
        </mxCell>
        <mxCell id="lVpZAh8K_LY20SjphWDw-27" value="" style="endArrow=none;html=1;rounded=0;" edge="1" parent="1">
          <mxGeometry width="50" height="50" relative="1" as="geometry">
            <mxPoint x="800" y="670" as="sourcePoint" />
            <mxPoint x="850" y="620" as="targetPoint" />
          </mxGeometry>
        </mxCell>
        <mxCell id="lVpZAh8K_LY20SjphWDw-28" value="" style="endArrow=classic;html=1;rounded=0;" edge="1" parent="1">
          <mxGeometry width="50" height="50" relative="1" as="geometry">
            <mxPoint x="800" y="670" as="sourcePoint" />
            <mxPoint x="850" y="620" as="targetPoint" />
          </mxGeometry>
        </mxCell>
      </root>
    </mxGraphModel>
  </diagram>
</mxfile>
